<svg xmlns="http://www.w3.org/2000/svg" data-name="Layer 1" viewBox="0 0 512 512"><path d="m316.786 283.675 1.116-6.733h29.06a22.5 22.5 0 0 0 0-45h-48.14a22.426 22.426 0 0 0-22.197 18.822l-9.536 57.561a22.475 22.475 0 0 0 32.41 23.726c.105-.052.341-.164.686-.32 4.344-1.955 7.22-3.062 15.774-3.062a16.705 16.705 0 0 1 16.664 17.607 16.69 16.69 0 0 1-29.619 9.602 22.5 22.5 0 1 0-34.895 28.413 61.454 61.454 0 0 0 47.838 22.753c.42 0 .84-.004 1.274-.013a61.874 61.874 0 0 0 60.342-58.423 61.177 61.177 0 0 0-16.87-45.717 61.968 61.968 0 0 0-43.907-19.216Zm45.797 64.155a46.818 46.818 0 0 1-45.65 44.204c-.329.006-.658.01-.986.01a46.516 46.516 0 0 1-36.206-17.223 7.5 7.5 0 0 1 11.632-9.471 31.685 31.685 0 1 0 24.586-51.68c-11.318 0-16.229 1.817-21.935 4.385-.72.324-1.18.552-1.355.641a7.476 7.476 0 0 1-10.782-7.92l9.536-57.56a7.476 7.476 0 0 1 7.4-6.274h48.14a7.5 7.5 0 0 1 0 15h-35.421a7.5 7.5 0 0 0-7.399 6.274l-3.648 22.02a7.5 7.5 0 0 0 7.985 8.702 95.354 95.354 0 0 1 7.479-.269 46.889 46.889 0 0 1 33.857 14.55 46.319 46.319 0 0 1 12.767 34.611Zm86.24-313.556h-32.066V22.807A22.833 22.833 0 0 0 393.95 0h-3.443A22.833 22.833 0 0 0 367.7 22.807v11.467H280.53V22.807A22.833 22.833 0 0 0 257.722 0h-3.444a22.833 22.833 0 0 0-22.807 22.807v11.467H144.3V22.807A22.833 22.833 0 0 0 121.493 0h-3.443a22.833 22.833 0 0 0-22.807 22.807v11.467H63.176a37.593 37.593 0 0 0-37.55 37.55V474.5a37.542 37.542 0 0 0 37.5 37.5h385.748a37.542 37.542 0 0 0 37.5-37.5V71.824a37.593 37.593 0 0 0-37.55-37.55ZM382.7 22.807A7.815 7.815 0 0 1 390.507 15h3.443a7.816 7.816 0 0 1 7.807 7.807v11.467H382.7Zm-136.229 0A7.816 7.816 0 0 1 254.278 15h3.444a7.816 7.816 0 0 1 7.807 7.807v11.467H246.47Zm-136.228 0A7.816 7.816 0 0 1 118.05 15h3.443a7.815 7.815 0 0 1 7.807 7.807v11.467h-19.057Zm361.131 118.647h-64.145a7.5 7.5 0 0 0 0 15h64.145V474.5a22.526 22.526 0 0 1-22.5 22.5H63.126a22.526 22.526 0 0 1-22.5-22.5V156.454h336.603a7.5 7.5 0 0 0 0-15H40.626v-69.63a22.576 22.576 0 0 1 22.55-22.55h32.067v22.052a22.833 22.833 0 0 0 22.807 22.807 7.5 7.5 0 0 0 0-15 7.816 7.816 0 0 1-7.807-7.807V49.274H231.47v22.052a22.833 22.833 0 0 0 22.807 22.807 7.5 7.5 0 0 0 0-15 7.816 7.816 0 0 1-7.807-7.807V49.274h121.23v22.052a22.833 22.833 0 0 0 22.806 22.807 7.5 7.5 0 0 0 0-15 7.815 7.815 0 0 1-7.807-7.807V49.274h66.124a22.576 22.576 0 0 1 22.55 22.55ZM227.311 361.75l-21.88-.067c5.976-8.5 12.856-18.309 20.558-29.314 8.776-12.54 14.531-24.529 17.107-35.636.17-.733.304-1.482.4-2.23l.633-4.956a22.565 22.565 0 0 0 .182-2.851 55.29 55.29 0 0 0-109.535-10.692 22.5 22.5 0 1 0 44.157 8.673 10.29 10.29 0 0 1 20.327.985l-.236 1.84c-1.429 5.303-4.758 11.714-9.902 19.064l-5.59 7.982a7.5 7.5 0 0 0 12.284 8.61l5.595-7.992c6.324-9.036 10.45-17.243 12.262-24.392a7.534 7.534 0 0 0 .17-.892l.389-3.047a7.483 7.483 0 0 0 .053-1.289 25.29 25.29 0 0 0-50.071-3.76 7.5 7.5 0 1 1-14.719-2.891 40.29 40.29 0 0 1 79.816 7.8 7.573 7.573 0 0 1-.061.952l-.633 4.954a7.522 7.522 0 0 1-.134.745c-2.14 9.227-7.113 19.463-14.783 30.422a13514.264 13514.264 0 0 1-28.822 41.046 7.5 7.5 0 0 0 6.104 11.824l36.283.112a7.5 7.5 0 0 1-.047 15l-65.293-.201a7.5 7.5 0 0 1-5.898-12.103c.396-.526 6.734-9.278 22.94-32.283a7.5 7.5 0 1 0-12.263-8.638c-16.76 23.79-22.294 31.395-22.668 31.908a22.5 22.5 0 0 0 17.843 36.116l65.363.201a22.5 22.5 0 0 0 .069-45Z"/></svg>