<svg xmlns="http://www.w3.org/2000/svg" width="48" height="48"><path style="line-height:normal;text-indent:0;text-align:start;text-decoration-line:none;text-decoration-style:solid;text-decoration-color:#000;text-transform:none;block-progression:tb;isolation:auto;mix-blend-mode:normal" fill-rule="evenodd" d="M24 0C10.751 0 0 10.751 0 24s10.751 24 24 24 24-10.751 24-24S37.249 0 24 0zm0 1c12.708 0 23 10.291 23 23S36.708 47 24 47 1 36.709 1 24 11.292 1 24 1zM12.475 13a.5.5 0 0 0 .05 1h2.584l2.924 15.594a.5.5 0 0 0 .492.406h15.079a.5.5 0 0 0 .013 0 .5.5 0 0 0 .051 0h.162c.696 0 1.188.47 1.188 1s-.492 1-1.188 1H18.424a.5.5 0 1 0 0 1H33.83c1.173 0 2.188-.867 2.188-2 0-1.012-.811-1.808-1.82-1.967l1.814-11.453a.5.5 0 0 0-.494-.578H16.689l-.673-3.594a.5.5 0 0 0-.49-.408h-3a.5.5 0 0 0-.051 0zm19.043 20c-.823 0-1.5.678-1.5 1.5s.677 1.5 1.5 1.5c.822 0 1.5-.678 1.5-1.5s-.678-1.5-1.5-1.5zm-10 0c-.823 0-1.5.678-1.5 1.5s.677 1.5 1.5 1.5c.822 0 1.5-.678 1.5-1.5s-.678-1.5-1.5-1.5zm-4.641-14.998h3.182L20.225 20h-2.973l-.375-1.998zm4.184 0h2.957V20h-2.791l-.166-1.998zm3.957 0h2V20h-2v-1.998zm3 0h2.957L30.809 20h-2.791v-1.998zm3.959 0h2.955L34.615 20h-2.804l.166-1.998zM17.439 21h2.87l.166 2h-2.66l-.376-2zm3.872 0h2.707v2h-2.541l-.166-2zm3.707 0h2v2h-2v-2zm3 0h2.707l-.166 2h-2.541v-2zm3.709 0h2.73l-.316 2h-2.58l.166-2zm-13.725 3h2.557l.166 2h-2.348l-.375-2zm3.559 0h2.457v2h-2.291l-.166-2zm3.457 0h2v2h-2v-2zm3 0h2.457l-.166 2h-2.291v-2zm3.459 0h2.505l-.316 2h-2.355l.166-2zm-12.913 3h2.243l.168 2h-2.036l-.375-2zm3.247 0h2.207v2h-2.041l-.166-2zm3.207 0h2v2h-2v-2zm3 0h2.207l-.166 2h-2.041v-2zm3.21 0h2.28l-.319 2h-2.128l.168-2zm-9.71 7c.282 0 .5.218.5.5 0 .282-.218.5-.5.5a.493.493 0 0 1-.5-.5c0-.282.218-.5.5-.5zm10 0c.282 0 .5.218.5.5 0 .282-.218.5-.5.5a.493.493 0 0 1-.5-.5c0-.282.218-.5.5-.5z" color="#000" font-family="sans-serif" font-weight="400" overflow="visible"/></svg>