<svg xmlns="http://www.w3.org/2000/svg" width="64" height="64" viewBox="0 0 16.933 16.933"><path fill="#4b4f52" style="line-height:normal;font-variant-ligatures:normal;font-variant-position:normal;font-variant-caps:normal;font-variant-numeric:normal;font-variant-alternates:normal;font-feature-settings:normal;text-indent:0;text-align:start;text-decoration-line:none;text-decoration-style:solid;text-decoration-color:#000;text-transform:none;text-orientation:mixed;shape-padding:0;isolation:auto;mix-blend-mode:normal" d="M4.2324219 3.5585938C3.9177125 3.5584788 3.6453254 3.7117155 3.4941406 3.9433593 3.3429559 4.1750033 3.3222528 4.5005448 3.4921875 4.7617187l2.1171876 3.2480467a.26460982.26460982 0 0 0 .00781.011718L7.9765599 11.23828c.00484.02564.011364.07373.039063.138672.02806.06579.088874.147604.1738281.197266.084954.04966.1797113.06836.2773439.06836.096197 0 .190178-.01575.2753905-.06445.085212-.04871.1460627-.133413.1738281-.199219.05384-.127604.06601-.179385.025392-.11914L11.314455 8.0214835a.26460982.26460982 0 0 0 .0078-.011718l2.117187-3.2480471c.169935-.2611742.151185-.5867156 0-.8183594C13.288268 3.7117155 13.013928 3.5584788 12.699219 3.5585938H8.4667968zm0 .5292967h4.2343749 4.2324222c.145595-.0000531.246465.067294.296875.1445313.05041.077237.05992.1481445 0 .2402343L10.882812 7.7148436 8.5078125 10.955078a.26460982.26460982 0 0 0-.00977.01172c-.043855.06731-.022617.05477-.03125.08984-.0077-.02889-.0048-.04626-.033203-.08984a.26460982.26460982 0 0 0-.00781-.01172L6.0488282 7.7148436 3.9375 4.4726561c-.059919-.09209-.05041-.1629966 0-.2402343.05041-.077238.1493264-.1445844.2949219-.1445313zM7.6738281 15.345703a.2646485.2646485 0 1 0 0 .529297h1.5859374a.2646485.2646485 0 1 0 0-.529297z" color="#000" font-family="sans-serif" font-weight="400" overflow="visible"/><path fill="#4b4f52" style="line-height:normal;font-variant-ligatures:normal;font-variant-position:normal;font-variant-caps:normal;font-variant-numeric:normal;font-variant-alternates:normal;font-feature-settings:normal;text-indent:0;text-align:start;text-decoration-line:none;text-decoration-style:solid;text-decoration-color:#000;text-transform:none;text-orientation:mixed;shape-padding:0;isolation:auto;mix-blend-mode:normal" d="M8.4628905 11.109375a.26460982.26460982 0 0 0-.2617187.267578v4.234375a.26464845.26464845 0 1 0 .5292969 0V11.376953A.26460982.26460982 0 0 0 8.4628905 11.109375zM11.371094 1.0546875A.26460982.26460982 0 0 0 11.123047 1.2480469L9.8007813 5.7460938a.26460982.26460982 0 1 0 .5078127.1484374l1.322265-4.4960937a.26460982.26460982 0 0 0-.259765-.34375zM4.2333334 1.0583334c-1.1658687-1e-7-2.1166667.9507978-2.1166667 2.1166667a.26460979.26460979 0 0 0 0 .0005291c.00116 1.0489075.7752607 1.9419501 1.8133262 2.0923787A.26460979.26460979 0 0 0 4.1894084 4.8617188L3.9367106 4.4736287C3.8768116 4.3815693 3.8867862 4.309664 3.9372398 4.2322999 3.9876689 4.1549354 4.0878285 4.0875527 4.2333334 4.0876059H5.9660443A.26460979.26460979 0 0 0 6.2135745 3.9165567C6.302951 3.679832 6.3491578 3.4290673 6.3500002 3.1760335a.26460979.26460979 0 0 0 0-.00103c0-1.1658688-.9507979-2.1166667-2.1166668-2.1166666zm0 .5291666c.8795331 0 1.5869329.7070718 1.5875002 1.5864666C5.8203838 3.30531 5.7825216 3.4316393 5.7500366 3.5584393H4.2333334C3.9185335 3.5583242 3.6449467 3.711675 3.4938436 3.9434286 3.3839093 4.1120399 3.3759847 4.3259849 3.4276978 4.5330565 2.958205 4.2551109 2.6464687 3.7506783 2.6458334 3.1744833 2.646117 2.2948429 3.353624 1.5875 4.2333334 1.5875z" color="#000" font-family="sans-serif" font-weight="400" overflow="visible"/><path fill="#4b4f52" style="line-height:normal;font-variant-ligatures:normal;font-variant-position:normal;font-variant-caps:normal;font-variant-numeric:normal;font-variant-alternates:normal;font-feature-settings:normal;text-indent:0;text-align:start;text-decoration-line:none;text-decoration-style:solid;text-decoration-color:#000;text-transform:none;text-orientation:mixed;shape-padding:0;isolation:auto;mix-blend-mode:normal" d="M 3.2949219,1.3027344 A 0.26460982,0.26460982 0 0 0 3.078125,1.703125 L 4.0039062,3.3066406 A 0.26466465,0.26466465 0 1 0 4.4628906,3.0429688 L 3.5371094,1.4394531 A 0.26460982,0.26460982 0 0 0 3.2949219,1.3027344 Z" color="#000" font-family="sans-serif" font-weight="400" overflow="visible"/><path fill="#4b4f52" style="line-height:normal;font-variant-ligatures:normal;font-variant-position:normal;font-variant-caps:normal;font-variant-numeric:normal;font-variant-alternates:normal;font-feature-settings:normal;text-indent:0;text-align:start;text-decoration-line:none;text-decoration-style:solid;text-decoration-color:#000;text-transform:none;text-orientation:mixed;shape-padding:0;isolation:auto;mix-blend-mode:normal" d="M 5.8222655,1.9824219 A 0.26460982,0.26460982 0 0 0 5.7050781,2.0195312 L 2.4980469,3.8710939 A 0.26466462,0.26466462 0 1 0 2.7617188,4.330078 L 5.9687499,2.4785156 A 0.26460982,0.26460982 0 0 0 5.8222655,1.9824219 Z" color="#000" font-family="sans-serif" font-weight="400" overflow="visible"/><path fill="#4b4f52" style="line-height:normal;font-variant-ligatures:normal;font-variant-position:normal;font-variant-caps:normal;font-variant-numeric:normal;font-variant-alternates:normal;font-feature-settings:normal;text-indent:0;text-align:start;text-decoration-line:none;text-decoration-style:solid;text-decoration-color:#000;text-transform:none;text-orientation:mixed;shape-padding:0;isolation:auto;mix-blend-mode:normal" d="M 4.7265625,1.1171875 A 0.26460982,0.26460982 0 0 0 4.4570312,1.3183594 L 3.9785156,3.1074219 A 0.26460982,0.26460982 0 1 0 4.4882812,3.2441406 L 4.9687501,1.4550781 A 0.26460982,0.26460982 0 0 0 4.7265625,1.1171875 Z" color="#000" font-family="sans-serif" font-weight="400" overflow="visible"/><path fill="#4b4f52" style="line-height:normal;font-variant-ligatures:normal;font-variant-position:normal;font-variant-caps:normal;font-variant-numeric:normal;font-variant-alternates:normal;font-feature-settings:normal;text-indent:0;text-align:start;text-decoration-line:none;text-decoration-style:solid;text-decoration-color:#000;text-transform:none;text-orientation:mixed;shape-padding:0;isolation:auto;mix-blend-mode:normal" d="M2.4414062 2.4296875A.26460982.26460982 0 0 0 2.3691402 2.9492188L5.7441401 3.9570311A.26460982.26460982 0 1 0 5.8964843 3.4511719L2.5195312 2.4414062a.26460982.26460982 0 0 0-.078125-.011719zM6.9323934 5.0353516c-.5955107 0-1.1449309.1516184-1.5291057.2847371C5.1587 5.4048708 5.0590389 5.6968607 5.2001994 5.9138508l1.1911417 1.8288291c.00412.00627.00845.012573.01292.018603L8.1498906 10.14305c.1593209.217013.4833128.216714.6423377-.000529L10.536308 7.7607539c.0042-.00576.0086-.011597.0124-.017571l1.234549-1.8939412c.198708-.3048707-.08134-.6945964-.433564-.6030503-.46762.1221349-1.149193.2697509-1.5601112.2697509-.639182 0-1.7648632-.4805907-2.8571894-.4805907zM7.540625 6.8791667A.13229168.13229168 0 0 1 7.6729167 7.0114584.13229168.13229168 0 0 1 7.540625 7.14375.13229168.13229168 0 0 1 7.4083333 7.0114584.13229168.13229168 0 0 1 7.540625 6.8791667zM9.3632528 8.2020834A.13229168.13229168 0 0 1 9.4955445 8.334375.13229168.13229168 0 0 1 9.3632528 8.4666667.13229168.13229168 0 0 1 9.2309611 8.334375.13229168.13229168 0 0 1 9.3632528 8.2020834z" color="#000" font-family="sans-serif" font-weight="400" overflow="visible"/></svg>