<svg xmlns="http://www.w3.org/2000/svg" width="24" height="24" viewBox="0 0 6.35 6.35"><path d="M3.906 291.18a.794.794 0 0 0-.561.23.797.797 0 0 0 0 1.122l.374.374-1.463 1.463-.374-.374a.797.797 0 0 0-1.121 0 .798.798 0 0 0-.002 1.123l1.123 1.123a.798.798 0 0 0 1.123-.001.797.797 0 0 0 0-1.122l-.374-.374 1.463-1.462.374.373a.797.797 0 0 0 1.122 0 .798.798 0 0 0 0-1.123l-1.122-1.122a.79.79 0 0 0-.562-.23zm0 .524c.067 0 .134.027.187.08l1.123 1.123a.259.259 0 0 1-.001.374.257.257 0 0 1-.373 0l-1.123-1.123a.257.257 0 0 1 0-.373.266.266 0 0 1 .187-.08zm-2.584 2.585c.066 0 .132.027.186.08l1.123 1.123a.257.257 0 0 1 0 .373.258.258 0 0 1-.375.001l-1.123-1.123a.258.258 0 0 1 .002-.374.263.263 0 0 1 .187-.08z" color="#000" font-family="sans-serif" font-weight="400" overflow="visible" transform="translate(0 -290.65)" style="line-height:normal;font-variant-ligatures:normal;font-variant-position:normal;font-variant-caps:normal;font-variant-numeric:normal;font-variant-alternates:normal;font-feature-settings:normal;text-indent:0;text-align:start;text-decoration-line:none;text-decoration-style:solid;text-decoration-color:#000;text-transform:none;text-orientation:mixed;shape-padding:0;isolation:auto;mix-blend-mode:normal"/></svg>