<svg xmlns="http://www.w3.org/2000/svg" data-name="Layer 1" viewBox="0 0 32 32"><path d="M14.55,14.74a.5.5,0,0,0-.38-.32.48.48,0,0,0-.48.18,6.14,6.14,0,0,1-3.16,2.1,5.88,5.88,0,0,1-2.91.06.5.5,0,0,0-.58.66l.16.47A4,4,0,0,0,11,20.54a4.15,4.15,0,0,0,1.34-.23,4,4,0,0,0,2.42-5.1Zm-.89,3.09A3,3,0,0,1,12,19.37h0a3,3,0,0,1-2.29-.12,2.93,2.93,0,0,1-1.39-1.37,7,7,0,0,0,5.59-2A2.92,2.92,0,0,1,13.66,17.83ZM6.91,11.11a.51.51,0,0,0-.26-.28.5.5,0,0,0-.38,0L2.51,12.15a.51.51,0,0,0-.28.26.5.5,0,0,0,0,.38A2.44,2.44,0,0,0,3.49,14.2a2.37,2.37,0,0,0,1.07.25,2.48,2.48,0,0,0,.84-.15A2.44,2.44,0,0,0,6.81,13,2.48,2.48,0,0,0,6.91,11.11Zm-1,1.48a1.5,1.5,0,0,1-.85.77h0a1.49,1.49,0,0,1-1.66-.47L6.06,12A1.43,1.43,0,0,1,5.91,12.59Zm21.68-.23a2.52,2.52,0,0,0-2.53,2.46.54.54,0,0,0,.14.36.53.53,0,0,0,.36.15l4,.05h0a.5.5,0,0,0,.5-.49,2.43,2.43,0,0,0-.71-1.77A2.45,2.45,0,0,0,27.59,12.36Zm-1.43,2a1.55,1.55,0,0,1,1.42-1h0a1.53,1.53,0,0,1,1.05.45,1.48,1.48,0,0,1,.34.56Zm4.53-6.48-.24-.59-.51.37a11.57,11.57,0,0,1-6.79,2.09,11.59,11.59,0,0,1-5.78-1.64,18.12,18.12,0,0,0-3.19-4.92l-.42-.47-.36.53A11.61,11.61,0,0,1,7.77,7.55a11.49,11.49,0,0,1-7.1.21L.06,7.58l0,.64a17.67,17.67,0,0,0,2,9.26C4.15,21.37,8.73,26,12.68,26a4.55,4.55,0,0,0,1.55-.26,5.17,5.17,0,0,0,2.36-1.85C17.74,26,19.87,29,22.88,29h.06c4.46,0,8-6.78,8.83-11.71A17.58,17.58,0,0,0,30.69,7.86ZM13.9,24.75C10.25,26.06,5.09,21,2.92,17A16.58,16.58,0,0,1,1,8.89,12.61,12.61,0,0,0,8.1,8.5a12.66,12.66,0,0,0,5.75-4.19,16.43,16.43,0,0,1,3.64,7.5C18.34,16.27,17.55,23.46,13.9,24.75Zm16.88-7.64c-.76,4.48-4,11-7.88,10.88-2,0-4.09-1.89-5.69-5.12a16.68,16.68,0,0,0,1.59-7.64l1.77,0h0a.51.51,0,0,0,.5-.49,2.49,2.49,0,0,0-2.46-2.53h0c0-.21-.07-.42-.1-.62a17.11,17.11,0,0,0-.56-2.1,12.66,12.66,0,0,0,5.21,1.21A12.72,12.72,0,0,0,30,8.81,16.49,16.49,0,0,1,30.78,17.11ZM18.7,13.25a1.48,1.48,0,0,1,.95.44,1.43,1.43,0,0,1,.35.56l-1.23,0C18.75,13.9,18.73,13.57,18.7,13.25Zm4.32,5H23a4,4,0,0,0-4,3.94v.49a.53.53,0,0,0,.25.45.52.52,0,0,0,.51,0,6.07,6.07,0,0,1,2.78-.89,6.14,6.14,0,0,1,3.67,1,.5.5,0,0,0,.51,0,.51.51,0,0,0,.26-.44v-.5A4,4,0,0,0,23,18.28Zm-.15,3-.43,0a7,7,0,0,0-2.44.61,3,3,0,0,1,3-2.6h0a2.94,2.94,0,0,1,2.1.91A2.9,2.9,0,0,1,25.94,22,7.09,7.09,0,0,0,22.87,21.25ZM14.73,7.8,11,9.14a.48.48,0,0,0-.29.25.52.52,0,0,0,0,.39A2.48,2.48,0,0,0,13,11.43a2.41,2.41,0,0,0,.83-.14h0A2.48,2.48,0,0,0,15.36,8.1.49.49,0,0,0,14.73,7.8Zm-.37,1.78a1.51,1.51,0,0,1-.84.77l.16.47-.16-.47a1.5,1.5,0,0,1-1.66-.47l2.65-.94A1.43,1.43,0,0,1,14.36,9.58Z"/></svg>