<svg xmlns="http://www.w3.org/2000/svg" viewBox="0 0 512 512"><path d="M389.564,137.362H369.375v-10.6a68.185,68.185,0,0,0-68.109-68.107H210.735a68.185,68.185,0,0,0-68.11,68.107v10.6H122.436A71.517,71.517,0,0,0,51,208.8V369.289a71.517,71.517,0,0,0,71.436,71.436h4.514a13.154,13.154,0,0,0,13.122,12.618h28.915a13.154,13.154,0,0,0,13.123-12.618H329.89a13.154,13.154,0,0,0,13.122,12.618h28.916a13.154,13.154,0,0,0,13.122-12.618h4.514A71.517,71.517,0,0,0,461,369.289V208.8A71.517,71.517,0,0,0,389.564,137.362Zm-5.917,293.363H331.294V147.362h52.353ZM318.63,137.362H193.37v-10.6A17.384,17.384,0,0,1,210.735,109.4h90.531a17.384,17.384,0,0,1,17.364,17.363Zm2.664,10V430.725H190.706V147.362Zm-168.669-20.6a58.174,58.174,0,0,1,58.11-58.107h90.531a58.174,58.174,0,0,1,58.109,58.107v10.6H328.63v-10.6A27.394,27.394,0,0,0,301.266,99.4H210.735a27.4,27.4,0,0,0-27.365,27.363v10.6H152.625Zm28.081,20.6V430.725H128.353V147.362ZM61,369.289V208.8a61.5,61.5,0,0,1,57.353-61.285V430.574A61.5,61.5,0,0,1,61,369.289Zm107.987,74.054H140.072a3.147,3.147,0,0,1-3.095-2.618h35.106A3.148,3.148,0,0,1,168.987,443.343Zm202.941,0H343.012a3.148,3.148,0,0,1-3.1-2.618h35.106A3.148,3.148,0,0,1,371.928,443.343ZM451,369.289a61.505,61.505,0,0,1-57.353,61.285V147.513A61.505,61.505,0,0,1,451,208.8Z" data-name="Layer 16"/></svg>